<svg width="47" height="47" viewBox="0 0 47 47" fill="none" xmlns="http://www.w3.org/2000/svg">
<g clip-path="url(#clip0_181_213)">
<path d="M26.4375 14.6875C26.4375 17.0247 25.509 19.2662 23.8564 20.9189C22.2037 22.5715 19.9622 23.5 17.625 23.5C15.2878 23.5 13.0463 22.5715 11.3936 20.9189C9.74096 19.2662 8.8125 17.0247 8.8125 14.6875C8.8125 12.3503 9.74096 10.1088 11.3936 8.45612C13.0463 6.80346 15.2878 5.875 17.625 5.875C19.9622 5.875 22.2037 6.80346 23.8564 8.45612C25.509 10.1088 26.4375 12.3503 26.4375 14.6875ZM0 38.1875C0 41.125 2.9375 41.125 2.9375 41.125H32.3125C32.3125 41.125 35.25 41.125 35.25 38.1875C35.25 35.25 32.3125 26.4375 17.625 26.4375C2.9375 26.4375 0 35.25 0 38.1875ZM39.6562 14.4231C43.7306 10.2372 53.9178 17.5663 39.6562 26.9868C25.3976 17.5663 35.5819 10.2372 39.6562 14.4261V14.4231Z" fill="#D4E5FF"/>
</g>
<defs>
<clipPath id="clip0_181_213">
<rect width="47" height="47" fill="white"/>
</clipPath>
</defs>
</svg>
