<svg width="48" height="48" viewBox="0 0 48 48" fill="none" xmlns="http://www.w3.org/2000/svg">
<path d="M10 4H32C33.5913 4 35.1174 4.63214 36.2426 5.75736C37.3679 6.88258 38 8.4087 38 10V38C38 38.5304 37.7893 39.0391 37.4142 39.4142C37.0391 39.7893 36.5304 40 36 40H30" stroke="white" stroke-width="2" stroke-linecap="round" stroke-linejoin="round"/>
<path d="M24 24V28M10 4L25.176 7.036C26.536 7.30783 27.7598 8.04241 28.6393 9.11479C29.5188 10.1872 29.9996 11.5311 30 12.918V41.56C29.9998 41.8558 29.934 42.1478 29.8074 42.4151C29.6807 42.6824 29.4964 42.9183 29.2676 43.1058C29.0388 43.2933 28.7713 43.4276 28.4843 43.4993C28.1973 43.5709 27.898 43.578 27.608 43.52L13.216 40.644C12.3089 40.4627 11.4927 39.9726 10.9063 39.2571C10.3199 38.5416 9.99963 37.6451 10 36.72V4Z" stroke="white" stroke-width="2" stroke-linecap="round" stroke-linejoin="round"/>
</svg>
