<svg width="29" height="29" viewBox="0 0 29 29" fill="none" xmlns="http://www.w3.org/2000/svg">
<g clip-path="url(#clip0_336_313)">
<path d="M12.6873 4.53125C12.6873 5.73301 12.2099 6.88555 11.3601 7.73533C10.5103 8.5851 9.35781 9.0625 8.15604 9.0625C6.95428 9.0625 5.80174 8.5851 4.95197 7.73533C4.10219 6.88555 3.62479 5.73301 3.62479 4.53125C3.62479 3.32949 4.10219 2.17695 4.95197 1.32717C5.80174 0.477398 6.95428 0 8.15604 0C9.35781 0 10.5103 0.477398 11.3601 1.32717C12.2099 2.17695 12.6873 3.32949 12.6873 4.53125ZM20.3451 11.8773C20.1751 11.7922 19.9827 11.7626 19.795 11.7929C19.6073 11.8231 19.4339 11.9116 19.2993 12.0459L12.5749 20.5828L7.75367 15.5585C7.5796 15.4426 7.3708 15.3905 7.16268 15.411C6.95456 15.4314 6.75993 15.5233 6.61179 15.6709L0.00341797 23.5625V27.1875C0.00341797 27.6682 0.194377 28.1292 0.534287 28.4691C0.874197 28.809 1.33521 29 1.81592 29H27.1909C27.4289 29 27.6646 28.9531 27.8845 28.862C28.1044 28.7709 28.3042 28.6374 28.4725 28.4691C28.6409 28.3008 28.7744 28.101 28.8654 27.8811C28.9565 27.6612 29.0034 27.4255 29.0034 27.1875V19.0312L20.3451 11.8773Z" fill="white"/>
</g>
<defs>
<clipPath id="clip0_336_313">
<rect width="29" height="29" fill="white"/>
</clipPath>
</defs>
</svg>
