<svg width="47" height="47" viewBox="0 0 47 47" fill="none" xmlns="http://www.w3.org/2000/svg">
<g clip-path="url(#clip0_172_23)">
<path d="M19.5833 10.4445H31.3333V13.0556H19.5833V10.4445Z" fill="white"/>
<path d="M19.5833 15.6667H31.3333V18.2778H19.5833V15.6667Z" fill="white"/>
<path d="M19.5833 20.8889H31.3333V23.5H19.5833V20.8889Z" fill="white"/>
<path d="M19.5833 26.1111H31.3333V28.7222H19.5833V26.1111Z" fill="white"/>
<path d="M19.5833 31.3333H31.3333V33.9444H19.5833V31.3333Z" fill="white"/>
<path d="M14.3611 10.4445H16.9722V13.0556H14.3611V10.4445Z" fill="white"/>
<path d="M14.3611 15.6667H16.9722V18.2778H14.3611V15.6667Z" fill="white"/>
<path d="M14.3611 20.8889H16.9722V23.5H14.3611V20.8889Z" fill="white"/>
<path d="M14.3611 26.1111H16.9722V28.7222H14.3611V26.1111Z" fill="white"/>
<path d="M14.3611 31.3333H16.9722V33.9444H14.3611V31.3333Z" fill="white"/>
<path d="M36.5555 2.61108H10.4444C9.75191 2.61108 9.08777 2.88618 8.59809 3.37586C8.10841 3.86554 7.83331 4.52969 7.83331 5.2222V41.7778C7.83331 42.4703 8.10841 43.1344 8.59809 43.6241C9.08777 44.1138 9.75191 44.3889 10.4444 44.3889H36.5555C37.248 44.3889 37.9122 44.1138 38.4019 43.6241C38.8915 43.1344 39.1666 42.4703 39.1666 41.7778V5.2222C39.1666 4.52969 38.8915 3.86554 38.4019 3.37586C37.9122 2.88618 37.248 2.61108 36.5555 2.61108ZM36.5555 41.7778H10.4444V5.2222H36.5555V41.7778Z" fill="white"/>
</g>
<defs>
<clipPath id="clip0_172_23">
<rect width="47" height="47" fill="white"/>
</clipPath>
</defs>
</svg>
