<svg width="96" height="26" viewBox="0 0 96 26" fill="none" xmlns="http://www.w3.org/2000/svg">
<path d="M9.168 5.048V5.432C9.168 11.72 7.32 15.92 0.768 19.376L2.52 21.8C10.488 17.624 12.264 11.888 12.264 5.048H9.168ZM2.088 5.048V7.568H11.112V5.048H2.088ZM9.48 10.496L0.912 10.976L1.32 13.664L9.48 12.92V10.496ZM16.368 2.912V25.136H19.56V2.912H16.368ZM12.24 11.432V14.024H18.048V11.432H12.24ZM24.7901 3.512V5.888H41.3501V3.512H24.7901ZM24.9581 8.72V11.096H41.1821V8.72H24.9581ZM27.6221 4.448V10.256H30.8141V4.448H27.6221ZM35.3261 4.448V10.256H38.5181V4.448H35.3261ZM23.0381 12.248V14.744H43.1261V12.248H23.0381ZM25.3421 15.968V18.248H37.5581V19.352H25.3661V23.552H28.5101V21.488H40.7021V15.968H25.3421ZM25.3661 22.664V24.992H41.2781V22.664H25.3661ZM60.3803 2.936V16.4H63.5963V2.936H60.3803ZM46.2683 12.944V15.512H48.2123C52.6523 15.512 55.6043 15.44 58.9163 14.864L58.5563 12.32C55.3403 12.848 52.5323 12.944 48.2123 12.944H46.2683ZM46.2443 4.232V6.776H53.3243V8.624H46.2683V14.384H49.4123V11H56.4683V4.232H46.2443ZM56.1083 16.808C51.4043 16.808 48.5243 18.32 48.5243 20.984C48.5243 23.624 51.4043 25.16 56.1083 25.16C60.8123 25.16 63.7403 23.624 63.7403 20.984C63.7403 18.32 60.8123 16.808 56.1083 16.808ZM56.1083 19.28C59.0363 19.28 60.5483 19.808 60.5483 20.984C60.5483 22.136 59.0363 22.688 56.1083 22.688C53.2043 22.688 51.6923 22.136 51.6923 20.984C51.6923 19.808 53.2043 19.28 56.1083 19.28Z" fill="white"/>
<path d="M78.5714 16.125C82.2007 16.125 85.1429 13.1869 85.1429 9.5625C85.1429 5.93813 82.2007 3 78.5714 3C74.9421 3 72 5.93813 72 9.5625C72 13.1869 74.9421 16.125 78.5714 16.125Z" stroke="white" stroke-width="2"/>
<path d="M86.7857 24C91.3223 24 95 20.3273 95 15.7969C95 11.2664 91.3223 7.59375 86.7857 7.59375C82.2491 7.59375 78.5714 11.2664 78.5714 15.7969C78.5714 20.3273 82.2491 24 86.7857 24Z" stroke="white" stroke-width="2"/>
</svg>
