<svg width="42" height="42" viewBox="0 0 42 42" fill="none" xmlns="http://www.w3.org/2000/svg">
<g clip-path="url(#clip0_179_118)">
<path d="M17.0625 11.7653C21.4305 7.37363 32.3531 15.057 17.0625 24.9375C1.77187 15.057 12.6945 7.37626 17.0625 11.7653Z" fill="white"/>
<path d="M34.125 17.0627C34.1307 20.6926 32.9734 24.2289 30.8228 27.1532C30.9278 27.2319 31.0275 27.3159 31.1246 27.4104L41.2309 37.5167C41.7235 38.0089 42.0003 38.6766 42.0006 39.3729C42.0008 40.0693 41.7244 40.7372 41.2322 41.2297C40.74 41.7223 40.0723 41.9991 39.376 41.9994C38.6796 41.9996 38.0117 41.7232 37.5191 41.231L27.4129 31.1248C27.3179 31.0309 27.2301 30.93 27.1504 30.8229H27.1556C24.0629 33.0919 20.2958 34.2527 16.4624 34.1178C12.6289 33.9828 8.95276 32.5601 6.0272 30.0793C3.10164 27.5984 1.09736 24.2042 0.337845 20.4443C-0.421671 16.6844 0.107888 12.7783 1.84105 9.35635C3.57422 5.93441 6.40987 3.19629 9.89036 1.58392C13.3708 -0.0284578 17.2931 -0.421022 21.0241 0.469583C24.7551 1.36019 28.0772 3.482 30.4541 6.49257C32.8311 9.50315 34.1243 13.2268 34.125 17.0627ZM17.0625 31.5002C18.9585 31.5002 20.8359 31.1267 22.5875 30.4012C24.3392 29.6756 25.9307 28.6122 27.2714 27.2715C28.612 25.9309 29.6755 24.3393 30.401 22.5877C31.1266 20.836 31.5 18.9586 31.5 17.0627C31.5 15.1667 31.1266 13.2893 30.401 11.5377C29.6755 9.78603 28.612 8.19445 27.2714 6.8538C25.9307 5.51316 24.3392 4.4497 22.5875 3.72415C20.8359 2.99859 18.9585 2.62516 17.0625 2.62516C13.2335 2.62516 9.56122 4.14625 6.85367 6.8538C4.14611 9.56136 2.62502 13.2336 2.62502 17.0627C2.62502 20.8917 4.14611 24.564 6.85367 27.2715C9.56122 29.9791 13.2335 31.5002 17.0625 31.5002Z" fill="white"/>
</g>
<defs>
<clipPath id="clip0_179_118">
<rect width="42" height="42" fill="white"/>
</clipPath>
</defs>
</svg>
